<svg xmlns="http://www.w3.org/2000/svg" version="1.1" xmlns:xlink="http://www.w3.org/1999/xlink" xmlns:svgjs="http://svgjs.dev/svgjs" width="1500" height="409" viewBox="0 0 1500 409"><g transform="matrix(1,0,0,1,-0.9090909090909918,-0.7560792582282261)"><svg viewBox="0 0 396 108" data-background-color="#ffffff" preserveAspectRatio="xMidYMid meet" height="409" width="1500" xmlns="http://www.w3.org/2000/svg" xmlns:xlink="http://www.w3.org/1999/xlink"><g id="tight-bounds" transform="matrix(1,0,0,1,0.2400000000000091,0.19964929068129322)"><svg viewBox="0 0 395.52 107.6007014186374" height="107.6007014186374" width="395.52"><g><svg viewBox="0 0 722.1731974097665 196.46627879002574" height="107.6007014186374" width="395.52"><g><rect width="13.185869811305981" height="196.46627879002574" x="278.9493437992303" y="0" fill="#1976d2" opacity="1" stroke-width="0" stroke="transparent" fill-opacity="1" class="rect-qz-0" data-fill-palette-color="primary" rx="1%" id="qz-0" data-palette-color="#1976d2"></rect></g><g transform="matrix(1,0,0,1,326.65319740976656,0.48872208654233873)"><svg viewBox="0 0 395.52 195.48883461694106" height="195.48883461694106" width="395.52"><g id="textblocktransform"><svg viewBox="0 0 395.52 195.48883461694106" height="195.48883461694106" width="395.52" id="textblock"><g><svg viewBox="0 0 395.52 146.21555685131193" height="146.21555685131193" width="395.52"><g transform="matrix(1,0,0,1,0,0)"><svg width="395.52" viewBox="1.05 -31.05 85.75 31.7" height="146.21555685131193" data-palette-color="#1976d2"><g class="wordmark-text-0" data-fill-palette-color="primary" id="text-0"><path d="M15.7-10.9L15.7-10.9 12.15-10.9Q10.75-13 9.22-15.33 7.7-17.65 6.23-20.05 4.75-22.45 3.43-24.78 2.1-27.1 1.05-29.1L1.05-29.1Q1.25-29.65 1.8-30.18 2.35-30.7 3.25-30.7L3.25-30.7Q4.2-30.7 4.73-30.2 5.25-29.7 5.8-28.7L5.8-28.7Q6.45-27.55 7.28-26.13 8.1-24.7 9-23.13 9.9-21.55 10.8-20 11.7-18.45 12.48-17.1 13.25-15.75 13.85-14.75L13.85-14.75 14.05-14.75Q15.8-17.65 17.25-20.25 18.7-22.85 20.05-25.35 21.4-27.85 22.7-30.35L22.7-30.35Q23-30.55 23.45-30.63 23.9-30.7 24.25-30.7L24.25-30.7Q25.2-30.7 25.68-30.25 26.15-29.8 26.15-29L26.15-29Q26.15-28.5 25.38-26.88 24.6-25.25 23.2-22.83 21.8-20.4 19.9-17.35 18-14.3 15.7-10.9ZM11.9-1.6L11.9-12.85 15.95-12.85 15.95-0.1Q15.7 0 15.18 0.13 14.65 0.25 14.1 0.25L14.1 0.25Q13 0.25 12.45-0.2 11.9-0.65 11.9-1.6L11.9-1.6ZM54.15-27.05L54.15-27.05Q54.15-26.4 53.72-25.88 53.3-25.35 52.75-25.1L52.75-25.1Q51.5-26 49.72-26.8 47.95-27.6 45.15-27.6L45.15-27.6Q42.1-27.6 39.67-26.2 37.25-24.8 35.82-22.03 34.4-19.25 34.4-15.15L34.4-15.15Q34.4-9 37.42-5.9 40.45-2.8 45.3-2.8L45.3-2.8Q47.9-2.8 49.85-3.55 51.8-4.3 53.05-5.25L53.05-5.25Q53.55-5.05 54-4.53 54.45-4 54.45-3.3L54.45-3.3Q54.45-2.8 54.17-2.33 53.9-1.85 53.25-1.4L53.25-1.4Q52.1-0.6 50.1 0.03 48.1 0.65 45 0.65L45 0.65Q40.85 0.65 37.47-1.13 34.1-2.9 32.15-6.4 30.2-9.9 30.2-15.15L30.2-15.15Q30.2-20.4 32.22-23.95 34.25-27.5 37.57-29.28 40.9-31.05 44.85-31.05L44.85-31.05Q47.6-31.05 49.7-30.45 51.8-29.85 52.97-28.93 54.15-28 54.15-27.05ZM82.65-15.55L82.65-15.55Q82.65-9.3 79.65-6.08 76.65-2.85 70.8-2.85L70.8-2.85Q69.34-2.85 67.97-2.95 66.59-3.05 65.4-3.35L65.4-3.35 65.4-27.15Q66.4-27.35 67.59-27.45 68.8-27.55 70.34-27.55L70.34-27.55Q73.75-27.55 76.52-26.33 79.3-25.1 80.97-22.48 82.65-19.85 82.65-15.55ZM86.8-15.55L86.8-15.55Q86.8-20.7 84.72-24.1 82.65-27.5 78.97-29.23 75.3-30.95 70.4-30.95L70.4-30.95Q68.45-30.95 66.5-30.8 64.55-30.65 63-30.15L63-30.15Q62.2-29.9 61.77-29.48 61.35-29.05 61.35-28.25L61.35-28.25 61.35-2.55Q61.35-0.9 63.45-0.25L63.45-0.25Q65.25 0.3 67.27 0.43 69.3 0.55 70.84 0.55L70.84 0.55Q75.7 0.55 79.27-1.2 82.84-2.95 84.82-6.53 86.8-10.1 86.8-15.55Z" fill="#1976d2" data-fill-palette-color="primary"></path></g></svg></g></svg></g><g transform="matrix(1,0,0,1,0,180.73354065054224)"><svg viewBox="0 0 360.71423999999996 14.755293966398828" height="14.755293966398828" width="360.71423999999996"><g transform="matrix(1,0,0,1,0,0)"><svg width="360.71423999999996" viewBox="1.05 -32.9 821.3100000000001 33.6" height="14.755293966398828" data-palette-color="#1976d2"><path d="M15.7-10.9L15.7-10.9 12.15-10.9Q10.75-13 9.22-15.33 7.7-17.65 6.23-20.05 4.75-22.45 3.43-24.78 2.1-27.1 1.05-29.1L1.05-29.1Q1.25-29.65 1.8-30.18 2.35-30.7 3.25-30.7L3.25-30.7Q4.2-30.7 4.73-30.2 5.25-29.7 5.8-28.7L5.8-28.7Q6.45-27.55 7.28-26.13 8.1-24.7 9-23.13 9.9-21.55 10.8-20 11.7-18.45 12.48-17.1 13.25-15.75 13.85-14.75L13.85-14.75 14.05-14.75Q15.8-17.65 17.25-20.25 18.7-22.85 20.05-25.35 21.4-27.85 22.7-30.35L22.7-30.35Q23-30.55 23.45-30.63 23.9-30.7 24.25-30.7L24.25-30.7Q25.2-30.7 25.68-30.25 26.15-29.8 26.15-29L26.15-29Q26.15-28.5 25.38-26.88 24.6-25.25 23.2-22.83 21.8-20.4 19.9-17.35 18-14.3 15.7-10.9ZM11.9-1.6L11.9-12.85 15.95-12.85 15.95-0.1Q15.7 0 15.18 0.13 14.65 0.25 14.1 0.25L14.1 0.25Q13 0.25 12.45-0.2 11.9-0.65 11.9-1.6L11.9-1.6ZM52.7-11.55L52.7-11.55Q52.7-7.85 51.3-5.1 49.9-2.35 47.35-0.85 44.8 0.65 41.35 0.65L41.35 0.65Q37.9 0.65 35.32-0.85 32.75-2.35 31.35-5.1 29.95-7.85 29.95-11.55L29.95-11.55Q29.95-15.3 31.37-18.03 32.8-20.75 35.37-22.25 37.95-23.75 41.35-23.75L41.35-23.75Q44.75-23.75 47.3-22.25 49.85-20.75 51.27-18.03 52.7-15.3 52.7-11.55ZM41.35-20.45L41.35-20.45Q38-20.45 36.02-18.07 34.05-15.7 34.05-11.55L34.05-11.55Q34.05-7.35 35.97-5 37.9-2.65 41.35-2.65L41.35-2.65Q44.75-2.65 46.67-5.03 48.6-7.4 48.6-11.55L48.6-11.55Q48.6-15.7 46.67-18.07 44.75-20.45 41.35-20.45ZM58.9-8.45L58.9-8.45 58.9-13 62.9-13 62.9-8.65Q62.9-5.45 64.59-4.05 66.3-2.65 69.3-2.65L69.3-2.65Q71.3-2.65 72.7-3.08 74.09-3.5 74.9-3.95L74.9-3.95 74.9-13 78.9-13 78.9-4.1Q78.9-3.05 78.62-2.43 78.34-1.8 77.3-1.2L77.3-1.2Q76.2-0.55 74.15 0.05 72.09 0.65 69.25 0.65L69.25 0.65Q65.95 0.65 63.62-0.33 61.3-1.3 60.1-3.33 58.9-5.35 58.9-8.45ZM78.9-21.5L78.9-10.4 74.9-10.4 74.9-23Q75.15-23.1 75.67-23.23 76.2-23.35 76.75-23.35L76.75-23.35Q77.84-23.35 78.37-22.93 78.9-22.5 78.9-21.5L78.9-21.5ZM62.9-21.5L62.9-10.4 58.9-10.4 58.9-23Q59.15-23.1 59.67-23.23 60.2-23.35 60.8-23.35L60.8-23.35Q61.85-23.35 62.37-22.93 62.9-22.5 62.9-21.5L62.9-21.5ZM90.39-18.8L90.39-18.8 90.39-10.9 86.39-10.9 86.39-18.5Q86.39-19.65 86.82-20.33 87.24-21 88.24-21.65L88.24-21.65Q89.54-22.5 91.79-23.13 94.04-23.75 96.79-23.75L96.79-23.75Q100.79-23.75 100.79-21.75L100.79-21.75Q100.79-21.25 100.64-20.83 100.49-20.4 100.24-20.1L100.24-20.1Q99.74-20.2 98.94-20.3 98.14-20.4 97.34-20.4L97.34-20.4Q95.04-20.4 93.29-19.93 91.54-19.45 90.39-18.8ZM86.39-1.55L86.39-13.2 90.39-12.6 90.39-0.1Q90.14 0 89.64 0.13 89.14 0.25 88.54 0.25L88.54 0.25Q87.49 0.25 86.94-0.18 86.39-0.6 86.39-1.55L86.39-1.55ZM124.59-2.75L124.59-2.75Q127.94-2.75 129.66-4.28 131.39-5.8 131.39-8.2L131.39-8.2Q131.39-10.25 130.06-11.6 128.74-12.95 125.89-13.75L125.89-13.75 121.54-15.05Q119.44-15.7 117.89-16.73 116.34-17.75 115.51-19.28 114.69-20.8 114.69-22.85L114.69-22.85Q114.69-26.7 117.49-28.88 120.29-31.05 124.94-31.05L124.94-31.05Q127.64-31.05 129.76-30.48 131.89-29.9 133.11-29 134.34-28.1 134.34-27.1L134.34-27.1Q134.34-26.45 133.99-25.93 133.64-25.4 133.09-25.1L133.09-25.1Q131.84-26.1 129.71-26.85 127.59-27.6 125.09-27.6L125.09-27.6Q122.19-27.6 120.49-26.33 118.79-25.05 118.79-22.85L118.79-22.85Q118.79-21.1 120.01-20 121.24-18.9 123.99-18.1L123.99-18.1 127.04-17.2Q130.99-16.1 133.26-14 135.54-11.9 135.54-8.2L135.54-8.2Q135.54-4.25 132.66-1.8 129.79 0.65 124.59 0.65L124.59 0.65Q121.54 0.65 119.26-0.03 116.99-0.7 115.71-1.73 114.44-2.75 114.44-3.75L114.44-3.75Q114.44-4.6 114.96-5.18 115.49-5.75 116.19-6L116.19-6Q117.34-4.9 119.44-3.83 121.54-2.75 124.59-2.75ZM159.89-11.35L143.09-9 142.89-12.15 157.99-14.2Q157.79-16.95 156.09-18.73 154.39-20.5 151.39-20.5L151.39-20.5Q148.29-20.5 146.26-18.28 144.24-16.05 144.24-11.9L144.24-11.9 144.24-10.8Q144.59-6.8 146.86-4.73 149.14-2.65 153.09-2.65L153.09-2.65Q155.19-2.65 156.89-3.35 158.59-4.05 159.59-4.85L159.59-4.85Q160.14-4.5 160.46-4.03 160.79-3.55 160.79-2.95L160.79-2.95Q160.79-2 159.71-1.18 158.64-0.35 156.86 0.15 155.09 0.65 152.89 0.65L152.89 0.65Q149.04 0.65 146.21-0.75 143.39-2.15 141.86-4.93 140.34-7.7 140.34-11.7L140.34-11.7Q140.34-14.55 141.16-16.78 141.99-19 143.46-20.55 144.94-22.1 146.99-22.93 149.04-23.75 151.44-23.75L151.44-23.75Q154.49-23.75 156.81-22.45 159.14-21.15 160.46-18.82 161.79-16.5 161.79-13.5L161.79-13.5Q161.79-12.4 161.29-11.93 160.79-11.45 159.89-11.35L159.89-11.35ZM187.58-15.25L187.58-15.25 187.58-10.15 183.58-10.15 183.58-15.05Q183.58-17.85 182.01-19.15 180.43-20.45 177.78-20.45L177.78-20.45Q175.78-20.45 174.23-19.95 172.68-19.45 171.58-18.8L171.58-18.8 171.58-10.15 167.58-10.15 167.58-18.6Q167.58-19.65 168.01-20.33 168.43-21 169.48-21.65L169.48-21.65Q170.78-22.4 172.93-23.08 175.08-23.75 177.78-23.75L177.78-23.75Q182.33-23.75 184.96-21.68 187.58-19.6 187.58-15.25ZM167.58-1.55L167.58-12.9 171.58-12.9 171.58-0.1Q171.33 0 170.83 0.13 170.33 0.25 169.73 0.25L169.73 0.25Q168.68 0.25 168.13-0.18 167.58-0.6 167.58-1.55L167.58-1.55ZM183.58-1.55L183.58-12.9 187.58-12.9 187.58-0.1Q187.33 0 186.81 0.13 186.28 0.25 185.73 0.25L185.73 0.25Q184.63 0.25 184.11-0.18 183.58-0.6 183.58-1.55L183.58-1.55ZM195.13-6.05L195.13-13.2 199.13-13.2 199.13-6.3Q199.13-4.3 200.28-3.48 201.43-2.65 203.43-2.65L203.43-2.65Q204.28-2.65 205.33-2.95 206.38-3.25 207.08-3.65L207.08-3.65Q207.38-3.35 207.63-2.9 207.88-2.45 207.88-1.85L207.88-1.85Q207.88-0.75 206.58-0.05 205.28 0.65 202.98 0.65L202.98 0.65Q199.48 0.65 197.31-0.9 195.13-2.45 195.13-6.05L195.13-6.05ZM206.28-19.3L197.18-19.3 197.18-22.6 207.33-22.6Q207.48-22.4 207.63-21.95 207.78-21.5 207.78-21L207.78-21Q207.78-20.2 207.38-19.75 206.98-19.3 206.28-19.3L206.28-19.3ZM199.13-28.35L199.13-11.7 195.13-11.7 195.13-29.8Q195.38-29.9 195.91-30.03 196.43-30.15 197.03-30.15L197.03-30.15Q198.08-30.15 198.61-29.73 199.13-29.3 199.13-28.35L199.13-28.35ZM213.33-30.4L213.33-30.4Q213.33-31.45 214.08-32.18 214.83-32.9 215.93-32.9L215.93-32.9Q217.08-32.9 217.78-32.18 218.48-31.45 218.48-30.4L218.48-30.4Q218.48-29.35 217.78-28.63 217.08-27.9 215.93-27.9L215.93-27.9Q214.83-27.9 214.08-28.63 213.33-29.35 213.33-30.4ZM213.93-1.55L213.93-13.2 217.93-13.2 217.93-0.1Q217.68 0 217.18 0.13 216.68 0.25 216.08 0.25L216.08 0.25Q215.03 0.25 214.48-0.18 213.93-0.6 213.93-1.55L213.93-1.55ZM217.93-21.5L217.93-11.25 213.93-11.25 213.93-23Q214.18-23.1 214.7-23.23 215.23-23.35 215.83-23.35L215.83-23.35Q216.88-23.35 217.4-22.93 217.93-22.5 217.93-21.5L217.93-21.5ZM244.38-16L244.38-16 244.38-10.25 240.38-10.25 240.38-15.7Q240.38-18.15 238.95-19.3 237.53-20.45 235.18-20.45L235.18-20.45Q233.63-20.45 232.18-19.95 230.73-19.45 229.73-18.8L229.73-18.8 229.73-10.25 225.73-10.25 225.73-18.6Q225.73-19.6 226.15-20.3 226.58-21 227.63-21.65L227.63-21.65Q228.98-22.5 231.05-23.13 233.13-23.75 235.23-23.75L235.23-23.75Q237.78-23.75 239.73-22.98 241.68-22.2 242.63-20.85L242.63-20.85Q242.93-20.55 243.13-20.3 243.33-20.05 243.53-19.65L243.53-19.65Q243.88-19.05 244.13-18.1 244.38-17.15 244.38-16ZM259.03-15.9L259.03-15.9 259.03-10.25 255.03-10.25 255.03-15.7Q255.03-18.15 253.63-19.3 252.23-20.45 249.88-20.45L249.88-20.45Q248.13-20.45 246.5-19.73 244.88-19 243.58-17.65L243.58-17.65 241.98-20.55Q243.28-21.85 245.38-22.8 247.48-23.75 250.18-23.75L250.18-23.75Q252.88-23.75 254.85-22.9 256.83-22.05 257.93-20.3 259.03-18.55 259.03-15.9ZM225.73-1.55L225.73-12.9 229.73-12.9 229.73-0.1Q229.48 0 228.98 0.13 228.48 0.25 227.88 0.25L227.88 0.25Q226.83 0.25 226.28-0.18 225.73-0.6 225.73-1.55L225.73-1.55ZM240.38-1.55L240.38-12.9 244.38-12.9 244.38-0.1Q244.13 0 243.6 0.13 243.08 0.25 242.53 0.25L242.53 0.25Q241.43 0.25 240.9-0.18 240.38-0.6 240.38-1.55L240.38-1.55ZM255.03-1.55L255.03-12.9 259.03-12.9 259.03-0.1Q258.78 0 258.25 0.13 257.73 0.25 257.18 0.25L257.18 0.25Q256.08 0.25 255.55-0.18 255.03-0.6 255.03-1.55L255.03-1.55ZM284.77-11.35L267.97-9 267.77-12.15 282.87-14.2Q282.67-16.95 280.97-18.73 279.27-20.5 276.27-20.5L276.27-20.5Q273.17-20.5 271.15-18.28 269.12-16.05 269.12-11.9L269.12-11.9 269.12-10.8Q269.47-6.8 271.75-4.73 274.02-2.65 277.97-2.65L277.97-2.65Q280.07-2.65 281.77-3.35 283.47-4.05 284.47-4.85L284.47-4.85Q285.02-4.5 285.35-4.03 285.67-3.55 285.67-2.95L285.67-2.95Q285.67-2 284.6-1.18 283.52-0.35 281.75 0.15 279.97 0.65 277.77 0.65L277.77 0.65Q273.92 0.65 271.1-0.75 268.27-2.15 266.75-4.93 265.22-7.7 265.22-11.7L265.22-11.7Q265.22-14.55 266.05-16.78 266.87-19 268.35-20.55 269.82-22.1 271.87-22.93 273.92-23.75 276.32-23.75L276.32-23.75Q279.37-23.75 281.7-22.45 284.02-21.15 285.35-18.82 286.67-16.5 286.67-13.5L286.67-13.5Q286.67-12.4 286.17-11.93 285.67-11.45 284.77-11.35L284.77-11.35ZM312.47-15.25L312.47-15.25 312.47-10.15 308.47-10.15 308.47-15.05Q308.47-17.85 306.9-19.15 305.32-20.45 302.67-20.45L302.67-20.45Q300.67-20.45 299.12-19.95 297.57-19.45 296.47-18.8L296.47-18.8 296.47-10.15 292.47-10.15 292.47-18.6Q292.47-19.65 292.9-20.33 293.32-21 294.37-21.65L294.37-21.65Q295.67-22.4 297.82-23.08 299.97-23.75 302.67-23.75L302.67-23.75Q307.22-23.75 309.85-21.68 312.47-19.6 312.47-15.25ZM292.47-1.55L292.47-12.9 296.47-12.9 296.47-0.1Q296.22 0 295.72 0.13 295.22 0.25 294.62 0.25L294.62 0.25Q293.57 0.25 293.02-0.18 292.47-0.6 292.47-1.55L292.47-1.55ZM308.47-1.55L308.47-12.9 312.47-12.9 312.47-0.1Q312.22 0 311.7 0.13 311.17 0.25 310.62 0.25L310.62 0.25Q309.52 0.25 309-0.18 308.47-0.6 308.47-1.55L308.47-1.55ZM320.02-6.05L320.02-13.2 324.02-13.2 324.02-6.3Q324.02-4.3 325.17-3.48 326.32-2.65 328.32-2.65L328.32-2.65Q329.17-2.65 330.22-2.95 331.27-3.25 331.97-3.65L331.97-3.65Q332.27-3.35 332.52-2.9 332.77-2.45 332.77-1.85L332.77-1.85Q332.77-0.75 331.47-0.05 330.17 0.65 327.87 0.65L327.87 0.65Q324.37 0.65 322.19-0.9 320.02-2.45 320.02-6.05L320.02-6.05ZM331.17-19.3L322.07-19.3 322.07-22.6 332.22-22.6Q332.37-22.4 332.52-21.95 332.67-21.5 332.67-21L332.67-21Q332.67-20.2 332.27-19.75 331.87-19.3 331.17-19.3L331.17-19.3ZM324.02-28.35L324.02-11.7 320.02-11.7 320.02-29.8Q320.27-29.9 320.79-30.03 321.32-30.15 321.92-30.15L321.92-30.15Q322.97-30.15 323.49-29.73 324.02-29.3 324.02-28.35L324.02-28.35ZM346.82 0.7L346.82 0.7Q342.12 0.7 339.54-1.15 336.97-3 336.97-6.5L336.97-6.5Q336.97-9.75 339.14-11.48 341.32-13.2 345.17-13.55L345.17-13.55 352.27-14.25 352.27-15.65Q352.27-18.15 350.77-19.3 349.27-20.45 346.72-20.45L346.72-20.45Q344.67-20.45 342.79-19.85 340.92-19.25 339.47-18.5L339.47-18.5Q339.07-18.85 338.74-19.33 338.42-19.8 338.42-20.3L338.42-20.3Q338.42-21.6 339.87-22.3L339.87-22.3Q341.22-23 342.99-23.38 344.77-23.75 346.77-23.75L346.77-23.75Q351.12-23.75 353.67-21.8 356.22-19.85 356.22-15.65L356.22-15.65 356.22-3.8Q356.22-2.7 355.79-2.13 355.37-1.55 354.52-1.05L354.52-1.05Q353.32-0.4 351.32 0.15 349.32 0.7 346.82 0.7ZM346.82-2.6L346.82-2.6Q348.92-2.6 350.29-3.03 351.67-3.45 352.27-3.85L352.27-3.85 352.27-11.1 346.07-10.45Q343.47-10.25 342.22-9.3 340.97-8.35 340.97-6.55L340.97-6.55Q340.97-4.7 342.44-3.65 343.92-2.6 346.82-2.6ZM363.91-1.55L363.91-13.2 367.91-12.6 367.91-0.1Q367.66 0 367.16 0.13 366.66 0.25 366.06 0.25L366.06 0.25Q365.01 0.25 364.46-0.18 363.91-0.6 363.91-1.55L363.91-1.55ZM367.91-30.95L367.91-10.7 363.91-11.25 363.91-32.4Q364.16-32.5 364.69-32.63 365.21-32.75 365.76-32.75L365.76-32.75Q366.86-32.75 367.39-32.33 367.91-31.9 367.91-30.95L367.91-30.95ZM408.71-27.05L408.71-27.05Q408.71-26.4 408.28-25.88 407.86-25.35 407.31-25.1L407.31-25.1Q406.06-26 404.28-26.8 402.51-27.6 399.71-27.6L399.71-27.6Q396.66-27.6 394.23-26.2 391.81-24.8 390.38-22.03 388.96-19.25 388.96-15.15L388.96-15.15Q388.96-9 391.98-5.9 395.01-2.8 399.86-2.8L399.86-2.8Q402.46-2.8 404.41-3.55 406.36-4.3 407.61-5.25L407.61-5.25Q408.11-5.05 408.56-4.53 409.01-4 409.01-3.3L409.01-3.3Q409.01-2.8 408.73-2.33 408.46-1.85 407.81-1.4L407.81-1.4Q406.66-0.6 404.66 0.03 402.66 0.65 399.56 0.65L399.56 0.65Q395.41 0.65 392.03-1.13 388.66-2.9 386.71-6.4 384.76-9.9 384.76-15.15L384.76-15.15Q384.76-20.4 386.78-23.95 388.81-27.5 392.13-29.28 395.46-31.05 399.41-31.05L399.41-31.05Q402.16-31.05 404.26-30.45 406.36-29.85 407.53-28.93 408.71-28 408.71-27.05ZM436.66-11.55L436.66-11.55Q436.66-7.85 435.26-5.1 433.86-2.35 431.31-0.85 428.76 0.65 425.31 0.65L425.31 0.65Q421.86 0.65 419.28-0.85 416.71-2.35 415.31-5.1 413.91-7.85 413.91-11.55L413.91-11.55Q413.91-15.3 415.33-18.03 416.76-20.75 419.33-22.25 421.91-23.75 425.31-23.75L425.31-23.75Q428.71-23.75 431.26-22.25 433.81-20.75 435.23-18.03 436.66-15.3 436.66-11.55ZM425.31-20.45L425.31-20.45Q421.96-20.45 419.98-18.07 418.01-15.7 418.01-11.55L418.01-11.55Q418.01-7.35 419.93-5 421.86-2.65 425.31-2.65L425.31-2.65Q428.71-2.65 430.63-5.03 432.56-7.4 432.56-11.55L432.56-11.55Q432.56-15.7 430.63-18.07 428.71-20.45 425.31-20.45ZM461.5-16L461.5-16 461.5-10.25 457.5-10.25 457.5-15.7Q457.5-18.15 456.08-19.3 454.65-20.45 452.3-20.45L452.3-20.45Q450.75-20.45 449.3-19.95 447.85-19.45 446.85-18.8L446.85-18.8 446.85-10.25 442.85-10.25 442.85-18.6Q442.85-19.6 443.28-20.3 443.7-21 444.75-21.65L444.75-21.65Q446.1-22.5 448.18-23.13 450.25-23.75 452.35-23.75L452.35-23.75Q454.9-23.75 456.85-22.98 458.8-22.2 459.75-20.85L459.75-20.85Q460.05-20.55 460.25-20.3 460.45-20.05 460.65-19.65L460.65-19.65Q461-19.05 461.25-18.1 461.5-17.15 461.5-16ZM476.15-15.9L476.15-15.9 476.15-10.25 472.15-10.25 472.15-15.7Q472.15-18.15 470.75-19.3 469.35-20.45 467-20.45L467-20.45Q465.25-20.45 463.63-19.73 462-19 460.7-17.65L460.7-17.65 459.1-20.55Q460.4-21.85 462.5-22.8 464.6-23.75 467.3-23.75L467.3-23.75Q470-23.75 471.98-22.9 473.95-22.05 475.05-20.3 476.15-18.55 476.15-15.9ZM442.85-1.55L442.85-12.9 446.85-12.9 446.85-0.1Q446.6 0 446.1 0.13 445.6 0.25 445 0.25L445 0.25Q443.95 0.25 443.4-0.18 442.85-0.6 442.85-1.55L442.85-1.55ZM457.5-1.55L457.5-12.9 461.5-12.9 461.5-0.1Q461.25 0 460.73 0.13 460.2 0.25 459.65 0.25L459.65 0.25Q458.55 0.25 458.03-0.18 457.5-0.6 457.5-1.55L457.5-1.55ZM472.15-1.55L472.15-12.9 476.15-12.9 476.15-0.1Q475.9 0 475.38 0.13 474.85 0.25 474.3 0.25L474.3 0.25Q473.2 0.25 472.68-0.18 472.15-0.6 472.15-1.55L472.15-1.55ZM502.3-16L502.3-16 502.3-10.25 498.3-10.25 498.3-15.7Q498.3-18.15 496.88-19.3 495.45-20.45 493.1-20.45L493.1-20.45Q491.55-20.45 490.1-19.95 488.65-19.45 487.65-18.8L487.65-18.8 487.65-10.25 483.65-10.25 483.65-18.6Q483.65-19.6 484.08-20.3 484.5-21 485.55-21.65L485.55-21.65Q486.9-22.5 488.98-23.13 491.05-23.75 493.15-23.75L493.15-23.75Q495.7-23.75 497.65-22.98 499.6-22.2 500.55-20.85L500.55-20.85Q500.85-20.55 501.05-20.3 501.25-20.05 501.45-19.65L501.45-19.65Q501.8-19.05 502.05-18.1 502.3-17.15 502.3-16ZM516.95-15.9L516.95-15.9 516.95-10.25 512.95-10.25 512.95-15.7Q512.95-18.15 511.55-19.3 510.15-20.45 507.8-20.45L507.8-20.45Q506.05-20.45 504.43-19.73 502.8-19 501.5-17.65L501.5-17.65 499.9-20.55Q501.2-21.85 503.3-22.8 505.4-23.75 508.1-23.75L508.1-23.75Q510.8-23.75 512.78-22.9 514.75-22.05 515.85-20.3 516.95-18.55 516.95-15.9ZM483.65-1.55L483.65-12.9 487.65-12.9 487.65-0.1Q487.4 0 486.9 0.13 486.4 0.25 485.8 0.25L485.8 0.25Q484.75 0.25 484.2-0.18 483.65-0.6 483.65-1.55L483.65-1.55ZM498.3-1.55L498.3-12.9 502.3-12.9 502.3-0.1Q502.05 0 501.53 0.13 501 0.25 500.45 0.25L500.45 0.25Q499.35 0.25 498.83-0.18 498.3-0.6 498.3-1.55L498.3-1.55ZM512.95-1.55L512.95-12.9 516.95-12.9 516.95-0.1Q516.7 0 516.18 0.13 515.65 0.25 515.1 0.25L515.1 0.25Q514 0.25 513.48-0.18 512.95-0.6 512.95-1.55L512.95-1.55ZM542.7-11.35L525.9-9 525.7-12.15 540.8-14.2Q540.6-16.95 538.9-18.73 537.2-20.5 534.2-20.5L534.2-20.5Q531.1-20.5 529.07-18.28 527.05-16.05 527.05-11.9L527.05-11.9 527.05-10.8Q527.4-6.8 529.67-4.73 531.95-2.65 535.9-2.65L535.9-2.65Q538-2.65 539.7-3.35 541.4-4.05 542.4-4.85L542.4-4.85Q542.95-4.5 543.27-4.03 543.6-3.55 543.6-2.95L543.6-2.95Q543.6-2 542.52-1.18 541.45-0.35 539.67 0.15 537.9 0.65 535.7 0.65L535.7 0.65Q531.85 0.65 529.02-0.75 526.2-2.15 524.67-4.93 523.15-7.7 523.15-11.7L523.15-11.7Q523.15-14.55 523.97-16.78 524.8-19 526.27-20.55 527.75-22.1 529.8-22.93 531.85-23.75 534.25-23.75L534.25-23.75Q537.3-23.75 539.62-22.45 541.95-21.15 543.27-18.82 544.6-16.5 544.6-13.5L544.6-13.5Q544.6-12.4 544.1-11.93 543.6-11.45 542.7-11.35L542.7-11.35ZM570.39-15.25L570.39-15.25 570.39-10.15 566.39-10.15 566.39-15.05Q566.39-17.85 564.82-19.15 563.25-20.45 560.6-20.45L560.6-20.45Q558.6-20.45 557.04-19.95 555.5-19.45 554.39-18.8L554.39-18.8 554.39-10.15 550.39-10.15 550.39-18.6Q550.39-19.65 550.82-20.33 551.25-21 552.29-21.65L552.29-21.65Q553.6-22.4 555.75-23.08 557.89-23.75 560.6-23.75L560.6-23.75Q565.14-23.75 567.77-21.68 570.39-19.6 570.39-15.25ZM550.39-1.55L550.39-12.9 554.39-12.9 554.39-0.1Q554.14 0 553.64 0.13 553.14 0.25 552.54 0.25L552.54 0.25Q551.5 0.25 550.94-0.18 550.39-0.6 550.39-1.55L550.39-1.55ZM566.39-1.55L566.39-12.9 570.39-12.9 570.39-0.1Q570.14 0 569.62 0.13 569.1 0.25 568.54 0.25L568.54 0.25Q567.44 0.25 566.92-0.18 566.39-0.6 566.39-1.55L566.39-1.55ZM577.94-6.05L577.94-13.2 581.94-13.2 581.94-6.3Q581.94-4.3 583.09-3.48 584.24-2.65 586.24-2.65L586.24-2.65Q587.09-2.65 588.14-2.95 589.19-3.25 589.89-3.65L589.89-3.65Q590.19-3.35 590.44-2.9 590.69-2.45 590.69-1.85L590.69-1.85Q590.69-0.75 589.39-0.05 588.09 0.65 585.79 0.65L585.79 0.65Q582.29 0.65 580.12-0.9 577.94-2.45 577.94-6.05L577.94-6.05ZM589.09-19.3L579.99-19.3 579.99-22.6 590.14-22.6Q590.29-22.4 590.44-21.95 590.59-21.5 590.59-21L590.59-21Q590.59-20.2 590.19-19.75 589.79-19.3 589.09-19.3L589.09-19.3ZM581.94-28.35L581.94-11.7 577.94-11.7 577.94-29.8Q578.19-29.9 578.72-30.03 579.24-30.15 579.84-30.15L579.84-30.15Q580.89-30.15 581.42-29.73 581.94-29.3 581.94-28.35L581.94-28.35ZM612.79-6.15L612.79-6.15Q612.79-2.95 610.44-1.15 608.09 0.65 603.64 0.65L603.64 0.65Q599.84 0.65 597.44-0.53 595.04-1.7 595.04-3.1L595.04-3.1Q595.04-3.7 595.36-4.28 595.69-4.85 596.34-5.2L596.34-5.2Q597.69-4.25 599.49-3.45 601.29-2.65 603.59-2.65L603.59-2.65Q608.79-2.65 608.79-6.15L608.79-6.15Q608.79-7.6 607.91-8.53 607.04-9.45 605.34-9.85L605.34-9.85 601.19-10.95Q598.14-11.7 596.74-13.28 595.34-14.85 595.34-17.2L595.34-17.2Q595.34-19.85 597.49-21.8 599.64-23.75 604.04-23.75L604.04-23.75Q606.39-23.75 608.14-23.28 609.89-22.8 610.86-22.03 611.84-21.25 611.84-20.35L611.84-20.35Q611.84-19.7 611.51-19.2 611.19-18.7 610.64-18.45L610.64-18.45Q610.04-18.85 609.11-19.33 608.19-19.8 606.94-20.13 605.69-20.45 604.19-20.45L604.19-20.45Q601.99-20.45 600.64-19.6 599.29-18.75 599.29-17.2L599.29-17.2Q599.29-16.1 600.06-15.28 600.84-14.45 602.54-14.05L602.54-14.05 605.99-13.2Q609.39-12.4 611.09-10.68 612.79-8.95 612.79-6.15ZM637.93-2.75L637.93-2.75Q641.28-2.75 643.01-4.28 644.73-5.8 644.73-8.2L644.73-8.2Q644.73-10.25 643.41-11.6 642.08-12.95 639.23-13.75L639.23-13.75 634.88-15.05Q632.78-15.7 631.23-16.73 629.68-17.75 628.86-19.28 628.03-20.8 628.03-22.85L628.03-22.85Q628.03-26.7 630.83-28.88 633.63-31.05 638.28-31.05L638.28-31.05Q640.98-31.05 643.11-30.48 645.23-29.9 646.46-29 647.68-28.1 647.68-27.1L647.68-27.1Q647.68-26.45 647.33-25.93 646.98-25.4 646.43-25.1L646.43-25.1Q645.18-26.1 643.06-26.85 640.93-27.6 638.43-27.6L638.43-27.6Q635.53-27.6 633.83-26.33 632.13-25.05 632.13-22.85L632.13-22.85Q632.13-21.1 633.36-20 634.58-18.9 637.33-18.1L637.33-18.1 640.38-17.2Q644.33-16.1 646.61-14 648.88-11.9 648.88-8.2L648.88-8.2Q648.88-4.25 646.01-1.8 643.13 0.65 637.93 0.65L637.93 0.65Q634.88 0.65 632.61-0.03 630.33-0.7 629.06-1.73 627.78-2.75 627.78-3.75L627.78-3.75Q627.78-4.6 628.31-5.18 628.83-5.75 629.53-6L629.53-6Q630.68-4.9 632.78-3.83 634.88-2.75 637.93-2.75ZM655.03-6.05L655.03-13.2 659.03-13.2 659.03-6.3Q659.03-4.3 660.18-3.48 661.33-2.65 663.33-2.65L663.33-2.65Q664.18-2.65 665.23-2.95 666.28-3.25 666.98-3.65L666.98-3.65Q667.28-3.35 667.53-2.9 667.78-2.45 667.78-1.85L667.78-1.85Q667.78-0.75 666.48-0.05 665.18 0.65 662.88 0.65L662.88 0.65Q659.38 0.65 657.21-0.9 655.03-2.45 655.03-6.05L655.03-6.05ZM666.18-19.3L657.08-19.3 657.08-22.6 667.23-22.6Q667.38-22.4 667.53-21.95 667.68-21.5 667.68-21L667.68-21Q667.68-20.2 667.28-19.75 666.88-19.3 666.18-19.3L666.18-19.3ZM659.03-28.35L659.03-11.7 655.03-11.7 655.03-29.8Q655.28-29.9 655.81-30.03 656.33-30.15 656.93-30.15L656.93-30.15Q657.98-30.15 658.51-29.73 659.03-29.3 659.03-28.35L659.03-28.35ZM681.83 0.7L681.83 0.7Q677.13 0.7 674.55-1.15 671.98-3 671.98-6.5L671.98-6.5Q671.98-9.75 674.15-11.48 676.33-13.2 680.18-13.55L680.18-13.55 687.28-14.25 687.28-15.65Q687.28-18.15 685.78-19.3 684.28-20.45 681.73-20.45L681.73-20.45Q679.68-20.45 677.8-19.85 675.93-19.25 674.48-18.5L674.48-18.5Q674.08-18.85 673.75-19.33 673.43-19.8 673.43-20.3L673.43-20.3Q673.43-21.6 674.88-22.3L674.88-22.3Q676.23-23 678-23.38 679.78-23.75 681.78-23.75L681.78-23.75Q686.13-23.75 688.68-21.8 691.23-19.85 691.23-15.65L691.23-15.65 691.23-3.8Q691.23-2.7 690.8-2.13 690.38-1.55 689.53-1.05L689.53-1.05Q688.33-0.4 686.33 0.15 684.33 0.7 681.83 0.7ZM681.83-2.6L681.83-2.6Q683.93-2.6 685.3-3.03 686.68-3.45 687.28-3.85L687.28-3.85 687.28-11.1 681.08-10.45Q678.48-10.25 677.23-9.3 675.98-8.35 675.98-6.55L675.98-6.55Q675.98-4.7 677.45-3.65 678.93-2.6 681.83-2.6ZM698.58-6.05L698.58-13.2 702.58-13.2 702.58-6.3Q702.58-4.3 703.73-3.48 704.88-2.65 706.88-2.65L706.88-2.65Q707.73-2.65 708.78-2.95 709.83-3.25 710.53-3.65L710.53-3.65Q710.83-3.35 711.08-2.9 711.33-2.45 711.33-1.85L711.33-1.85Q711.33-0.75 710.03-0.05 708.73 0.65 706.43 0.65L706.43 0.65Q702.93 0.65 700.75-0.9 698.58-2.45 698.58-6.05L698.58-6.05ZM709.73-19.3L700.63-19.3 700.63-22.6 710.78-22.6Q710.93-22.4 711.08-21.95 711.23-21.5 711.23-21L711.23-21Q711.23-20.2 710.83-19.75 710.43-19.3 709.73-19.3L709.73-19.3ZM702.58-28.35L702.58-11.7 698.58-11.7 698.58-29.8Q698.83-29.9 699.35-30.03 699.88-30.15 700.48-30.15L700.48-30.15Q701.53-30.15 702.05-29.73 702.58-29.3 702.58-28.35L702.58-28.35ZM716.77-30.4L716.77-30.4Q716.77-31.45 717.52-32.18 718.27-32.9 719.37-32.9L719.37-32.9Q720.52-32.9 721.22-32.18 721.92-31.45 721.92-30.4L721.92-30.4Q721.92-29.35 721.22-28.63 720.52-27.9 719.37-27.9L719.37-27.9Q718.27-27.9 717.52-28.63 716.77-29.35 716.77-30.4ZM717.37-1.55L717.37-13.2 721.37-13.2 721.37-0.1Q721.12 0 720.62 0.13 720.12 0.25 719.52 0.25L719.52 0.25Q718.47 0.25 717.92-0.18 717.37-0.6 717.37-1.55L717.37-1.55ZM721.37-21.5L721.37-11.25 717.37-11.25 717.37-23Q717.62-23.1 718.15-23.23 718.67-23.35 719.27-23.35L719.27-23.35Q720.32-23.35 720.85-22.93 721.37-22.5 721.37-21.5L721.37-21.5ZM745.47-6.15L745.47-6.15Q745.47-2.95 743.12-1.15 740.77 0.65 736.32 0.65L736.32 0.65Q732.52 0.65 730.12-0.53 727.72-1.7 727.72-3.1L727.72-3.1Q727.72-3.7 728.05-4.28 728.37-4.85 729.02-5.2L729.02-5.2Q730.37-4.25 732.17-3.45 733.97-2.65 736.27-2.65L736.27-2.65Q741.47-2.65 741.47-6.15L741.47-6.15Q741.47-7.6 740.6-8.53 739.72-9.45 738.02-9.85L738.02-9.85 733.87-10.95Q730.82-11.7 729.42-13.28 728.02-14.85 728.02-17.2L728.02-17.2Q728.02-19.85 730.17-21.8 732.32-23.75 736.72-23.75L736.72-23.75Q739.07-23.75 740.82-23.28 742.57-22.8 743.55-22.03 744.52-21.25 744.52-20.35L744.52-20.35Q744.52-19.7 744.2-19.2 743.87-18.7 743.32-18.45L743.32-18.45Q742.72-18.85 741.8-19.33 740.87-19.8 739.62-20.13 738.37-20.45 736.87-20.45L736.87-20.45Q734.67-20.45 733.32-19.6 731.97-18.75 731.97-17.2L731.97-17.2Q731.97-16.1 732.75-15.28 733.52-14.45 735.22-14.05L735.22-14.05 738.67-13.2Q742.07-12.4 743.77-10.68 745.47-8.95 745.47-6.15ZM751.57-6.05L751.57-13.2 755.57-13.2 755.57-6.3Q755.57-4.3 756.72-3.48 757.87-2.65 759.87-2.65L759.87-2.65Q760.72-2.65 761.77-2.95 762.82-3.25 763.52-3.65L763.52-3.65Q763.82-3.35 764.07-2.9 764.32-2.45 764.32-1.85L764.32-1.85Q764.32-0.75 763.02-0.05 761.72 0.65 759.42 0.65L759.42 0.65Q755.92 0.65 753.74-0.9 751.57-2.45 751.57-6.05L751.57-6.05ZM762.72-19.3L753.62-19.3 753.62-22.6 763.77-22.6Q763.92-22.4 764.07-21.95 764.22-21.5 764.22-21L764.22-21Q764.22-20.2 763.82-19.75 763.42-19.3 762.72-19.3L762.72-19.3ZM755.57-28.35L755.57-11.7 751.57-11.7 751.57-29.8Q751.82-29.9 752.34-30.03 752.87-30.15 753.47-30.15L753.47-30.15Q754.52-30.15 755.04-29.73 755.57-29.3 755.57-28.35L755.57-28.35ZM769.77-30.4L769.77-30.4Q769.77-31.45 770.52-32.18 771.27-32.9 772.37-32.9L772.37-32.9Q773.52-32.9 774.22-32.18 774.92-31.45 774.92-30.4L774.92-30.4Q774.92-29.35 774.22-28.63 773.52-27.9 772.37-27.9L772.37-27.9Q771.27-27.9 770.52-28.63 769.77-29.35 769.77-30.4ZM770.37-1.55L770.37-13.2 774.37-13.2 774.37-0.1Q774.12 0 773.62 0.13 773.12 0.25 772.52 0.25L772.52 0.25Q771.47 0.25 770.92-0.18 770.37-0.6 770.37-1.55L770.37-1.55ZM774.37-21.5L774.37-11.25 770.37-11.25 770.37-23Q770.62-23.1 771.14-23.23 771.67-23.35 772.27-23.35L772.27-23.35Q773.32-23.35 773.84-22.93 774.37-22.5 774.37-21.5L774.37-21.5ZM792.86-20.4L792.86-20.4Q789.46-20.4 787.21-18.1 784.96-15.8 784.96-11.5L784.96-11.5Q784.96-7.25 787.14-4.95 789.31-2.65 792.86-2.65L792.86-2.65Q794.96-2.65 796.36-3.23 797.76-3.8 798.86-4.55L798.86-4.55Q799.41-4.25 799.76-3.8 800.11-3.35 800.11-2.7L800.11-2.7Q800.11-1.3 798.04-0.33 795.96 0.65 792.86 0.65L792.86 0.65Q789.41 0.65 786.69-0.68 783.96-2 782.41-4.7 780.86-7.4 780.86-11.5L780.86-11.5Q780.86-15.55 782.46-18.28 784.06-21 786.79-22.38 789.51-23.75 792.76-23.75L792.76-23.75Q795.86-23.75 797.89-22.7 799.91-21.65 799.91-20.3L799.91-20.3Q799.91-19.7 799.56-19.25 799.21-18.8 798.66-18.55L798.66-18.55Q797.56-19.3 796.24-19.85 794.91-20.4 792.86-20.4ZM822.36-6.15L822.36-6.15Q822.36-2.95 820.01-1.15 817.66 0.65 813.21 0.65L813.21 0.65Q809.41 0.65 807.01-0.53 804.61-1.7 804.61-3.1L804.61-3.1Q804.61-3.7 804.94-4.28 805.26-4.85 805.91-5.2L805.91-5.2Q807.26-4.25 809.06-3.45 810.86-2.65 813.16-2.65L813.16-2.65Q818.36-2.65 818.36-6.15L818.36-6.15Q818.36-7.6 817.49-8.53 816.61-9.45 814.91-9.85L814.91-9.85 810.76-10.95Q807.71-11.7 806.31-13.28 804.91-14.85 804.91-17.2L804.91-17.2Q804.91-19.85 807.06-21.8 809.21-23.75 813.61-23.75L813.61-23.75Q815.96-23.75 817.71-23.28 819.46-22.8 820.44-22.03 821.41-21.25 821.41-20.35L821.41-20.35Q821.41-19.7 821.09-19.2 820.76-18.7 820.21-18.45L820.21-18.45Q819.61-18.85 818.69-19.33 817.76-19.8 816.51-20.13 815.26-20.45 813.76-20.45L813.76-20.45Q811.56-20.45 810.21-19.6 808.86-18.75 808.86-17.2L808.86-17.2Q808.86-16.1 809.64-15.28 810.41-14.45 812.11-14.05L812.11-14.05 815.56-13.2Q818.96-12.4 820.66-10.68 822.36-8.95 822.36-6.15Z" opacity="1" transform="matrix(1,0,0,1,0,0)" fill="#1976d2" class="slogan-text-1" data-fill-palette-color="secondary" id="text-1"></path></svg></g></svg></g></svg></g></svg></g><g transform="matrix(1,0,0,1,0,2.206533680727162)"><svg viewBox="0 0 244.43135999999998 192.05321142857142" height="192.05321142857142" width="244.43135999999998"><g><svg xmlns="http://www.w3.org/2000/svg" xmlns:xlink="http://www.w3.org/1999/xlink" version="1.1" x="0" y="0" viewBox="1 3 14 11" style="enable-background:new 0 0 16 16;" xml:space="preserve" height="192.05321142857142" width="244.43135999999998" class="icon-icon-0" data-fill-palette-color="accent" id="icon-0"><path d="M13.5 3C12.7 3 12 3.7 12 4.5c0 0.4 0.1 0.7 0.3 0.9L10.8 8c-0.1 0-0.2 0-0.3 0-0.4 0-0.7 0.1-0.9 0.3L7 6.8c0-0.1 0-0.2 0-0.3C7 5.7 6.3 5 5.5 5S4 5.7 4 6.5c0 0.4 0.2 0.8 0.4 1L2.7 11c-0.1 0-0.1 0-0.2 0C1.7 11 1 11.7 1 12.5S1.7 14 2.5 14 4 13.3 4 12.5c0-0.4-0.2-0.8-0.4-1L5.3 8c0.1 0 0.1 0 0.2 0 0.4 0 0.7-0.1 0.9-0.3L9 9.2c0 0.1 0 0.2 0 0.3 0 0.8 0.7 1.5 1.5 1.5S12 10.3 12 9.5c0-0.4-0.1-0.7-0.3-0.9L13.2 6c0.1 0 0.2 0 0.3 0C14.3 6 15 5.3 15 4.5S14.3 3 13.5 3z" fill="#1976d2" data-fill-palette-color="accent"></path></svg></g></svg></g></svg></g><defs></defs></svg><rect width="395.52" height="107.6007014186374" fill="none" stroke="none" visibility="hidden"></rect></g></svg></g></svg>