<svg xmlns="http://www.w3.org/2000/svg" version="1.1" xmlns:xlink="http://www.w3.org/1999/xlink" xmlns:svgjs="http://svgjs.dev/svgjs" width="1500" height="484" viewBox="0 0 1500 484"><g transform="matrix(1,0,0,1,-0.9090909090909918,-0.41592682283106797)"><svg viewBox="0 0 396 128" data-background-color="#ffffff" preserveAspectRatio="xMidYMid meet" height="484" width="1500" xmlns="http://www.w3.org/2000/svg" xmlns:xlink="http://www.w3.org/1999/xlink"><g id="tight-bounds" transform="matrix(1,0,0,1,0.2400000000000091,0.10999717628590133)"><svg viewBox="0 0 395.52 127.78000564742823" height="127.78000564742823" width="395.52"><g><svg viewBox="0 0 722.8014145284719 233.51428203483326" height="127.78000564742823" width="395.52"><g><rect width="13.286616637227652" height="233.51428203483326" x="279.2130789456221" y="0" fill="#0080ff" opacity="1" stroke-width="0" stroke="transparent" fill-opacity="1" class="rect-qz-0" data-fill-palette-color="primary" rx="1%" id="qz-0" data-palette-color="#0080ff"></rect></g><g transform="matrix(1,0,0,1,327.2814145284719,19.45952350290277)"><svg viewBox="0 0 395.52 194.59523502902772" height="194.59523502902772" width="395.52"><g id="textblocktransform"><svg viewBox="0 0 395.52 194.59523502902772" height="194.59523502902772" width="395.52" id="textblock"><g><svg viewBox="0 0 395.52 147.33271889400922" height="147.33271889400922" width="395.52"><g transform="matrix(1,0,0,1,0,0)"><svg width="395.52" viewBox="-0.4 -23.8 65.10000000000001 24.25" height="147.33271889400922" data-palette-color="#0080ff"><path d="M19.35-23.35L19.75-22.8 19.25-22.25Q17.9-20.6 16.95-18.8L16.95-18.8 12.4-10.1 12.4-4.15Q12.4-3 12.63-2.43 12.85-1.85 13.4-1.55 13.95-1.25 15.15-0.9L15.15-0.9 14.85 0 6.1 0 5.7-0.5 6.1-1.1Q6.95-2.2 7.28-3.38 7.6-4.55 7.6-6.55L7.6-6.55 7.6-10 2.85-18.7Q2.05-20.3 1.35-21.18 0.65-22.05-0.4-22.8L-0.4-22.8 0.05-23.35 9.2-23.35 9.45-22.45 8.7-22.25Q7.25-21.95 7.25-21.1L7.25-21.1Q7.25-20.8 7.5-20.25 7.75-19.7 8.25-18.75L8.25-18.75 11.65-12.35 15.25-19.2Q15.65-19.85 15.65-20.5L15.65-20.5Q15.65-21.15 15.25-21.63 14.85-22.1 14.25-22.25L14.25-22.25 13.3-22.45 13.6-23.35 19.35-23.35ZM32.3 0.45Q26.95 0.45 24.12-2.95 21.3-6.35 21.3-11.65L21.3-11.65Q21.3-16.95 24.15-20.38 27-23.8 32.4-23.8L32.4-23.8Q35.85-23.8 38.02-22.48 40.2-21.15 40.2-19L40.2-19Q40.2-16.9 38.45-15.7 36.7-14.5 34.05-14.5L34.05-14.5Q35.55-16.1 35.55-18.85L35.55-18.85Q35.55-20.45 34.57-21.53 33.6-22.6 32.05-22.6L32.05-22.6Q29.2-22.6 27.87-19.35 26.55-16.1 26.55-11.65L26.55-11.65Q26.55-8.8 27.37-6.45 28.2-4.1 29.77-2.73 31.35-1.35 33.4-1.35L33.4-1.35Q35.75-1.35 37.32-2.33 38.9-3.3 40.2-5.05L40.2-5.05 40.8-4.6Q39.45-2.35 37.32-0.95 35.2 0.45 32.3 0.45L32.3 0.45ZM42.65 0L42.3-0.9Q43.55-1.25 44.1-1.58 44.65-1.9 44.85-2.45 45.05-3 45.05-4.15L45.05-4.15 45.05-17.7Q45.05-19.45 44.77-20.25 44.5-21.05 43.5-21.65L43.5-21.65 42.9-22 43.1-22.65Q44.75-23.15 47.2-23.48 49.65-23.8 51.7-23.8L51.7-23.8Q58.05-23.8 61.37-20.68 64.7-17.55 64.7-11.65L64.7-11.65Q64.7-6.3 61.62-3.15 58.55 0 53.25 0L53.25 0 42.65 0ZM52.8-1Q59.55-1 59.55-11.65L59.55-11.65Q59.55-16.55 57.62-19.53 55.7-22.5 52.55-22.5L52.55-22.5Q51.25-22.5 50.55-22.1 49.85-21.7 49.85-20.95L49.85-20.95 49.85-5.65Q49.85-3.3 50.57-2.15 51.3-1 52.8-1L52.8-1Z" opacity="1" transform="matrix(1,0,0,1,0,0)" fill="#0080ff" class="wordmark-text-0" data-fill-palette-color="primary" id="text-0"></path></svg></g></svg></g><g transform="matrix(1,0,0,1,0,182.11443783963134)"><svg viewBox="0 0 375.74399999999997 12.48079718939636" height="12.48079718939636" width="375.74399999999997"><g transform="matrix(1,0,0,1,0,0)"><svg width="375.74399999999997" viewBox="1.6 -35.7 1095.76 36.400000000000006" height="12.48079718939636" data-palette-color="#0023ff"><path d="M17.6 0L14 0 14-14.8 1.6-35 5.4-35 16.55-16.7 16.85-16.7 25.75-35 29.55-35 17.6-15.5 17.6 0ZM33.15-17.5L33.15-17.5Q33.15-21.35 34.52-24.68 35.9-28 38.37-30.48 40.85-32.95 44.17-34.33 47.5-35.7 51.35-35.7L51.35-35.7Q55.2-35.7 58.52-34.33 61.85-32.95 64.32-30.48 66.8-28 68.17-24.68 69.55-21.35 69.55-17.5L69.55-17.5Q69.55-13.65 68.17-10.33 66.8-7 64.32-4.53 61.85-2.05 58.52-0.68 55.2 0.7 51.35 0.7L51.35 0.7Q47.5 0.7 44.17-0.68 40.85-2.05 38.37-4.53 35.9-7 34.52-10.33 33.15-13.65 33.15-17.5ZM36.95-17.5L36.95-17.5Q36.95-12.4 38.75-8.58 40.55-4.75 43.8-2.63 47.05-0.5 51.35-0.5L51.35-0.5Q55.65-0.5 58.9-2.63 62.15-4.75 63.95-8.6 65.75-12.45 65.75-17.5L65.75-17.5Q65.75-22.55 63.95-26.38 62.15-30.2 58.9-32.35 55.65-34.5 51.35-34.5L51.35-34.5Q47.05-34.5 43.82-32.38 40.6-30.25 38.77-26.43 36.95-22.6 36.95-17.5ZM79.55-14L79.55-35 82.95-35 82.95-13.9Q82.95-7.85 85.92-4.48 88.9-1.1 94.3-1.1L94.3-1.1Q97.7-1.1 100.22-2.43 102.75-3.75 104.12-6.1 105.5-8.45 105.4-11.5L105.4-11.5 104.55-35 107.95-35 107.1-11.5Q106.9-5.5 103.52-2.4 100.15 0.7 93.9 0.7L93.9 0.7Q87.15 0.7 83.35-3.23 79.55-7.15 79.55-14L79.55-14ZM119.94 0L119.94-35 126.64-35Q131.94-35 134.87-32.77 137.79-30.55 137.79-26.55L137.79-26.55Q137.79-23.45 135.97-21.4 134.14-19.35 130.69-18.65L130.69-18.65 130.69-18.35Q133.99-17.7 136.09-15.25 138.19-12.8 139.24-9.2L139.24-9.2Q140.19-5.9 141.12-4.08 142.04-2.25 143.17-1.45 144.29-0.65 145.84-0.3L145.84-0.3 145.84 0 143.79 0Q141.59 0 140.17-0.8 138.74-1.6 137.74-3.5 136.74-5.4 135.84-8.75L135.84-8.75Q134.39-13.9 131.99-16.05 129.59-18.2 126.14-18.2L126.14-18.2 125.84-18.2 125.84-19.1 126.14-19.1Q134.19-19.1 134.19-26.5L134.19-26.5Q134.19-33.8 126.64-33.8L126.64-33.8 123.34-33.8 123.34 0 119.94 0ZM162.49-1.1L162.49-1.1 162.79-4.1 163.09-4.1Q165.04-2.4 167.49-1.45 169.94-0.5 172.34-0.5L172.34-0.5Q175.74-0.5 177.84-2.38 179.94-4.25 179.94-7.4L179.94-7.4Q179.94-9.15 179.16-10.65 178.39-12.15 176.61-13.7 174.84-15.25 171.74-17.05L171.74-17.05Q169.59-18.3 167.64-19.68 165.69-21.05 164.44-22.88 163.19-24.7 163.19-27.25L163.19-27.25Q163.19-31.05 165.94-33.38 168.69-35.7 173.19-35.7L173.19-35.7Q175.19-35.7 177.49-35.27 179.79-34.85 181.04-34.2L181.04-34.2 180.79-31.4 180.49-31.4Q177.64-34.5 173.19-34.5L173.19-34.5Q169.99-34.5 168.04-32.88 166.09-31.25 166.09-28.5L166.09-28.5Q166.09-26.45 167.16-24.98 168.24-23.5 169.94-22.33 171.64-21.15 173.59-20.05L173.59-20.05Q175.84-18.75 177.96-17.3 180.09-15.85 181.46-13.83 182.84-11.8 182.84-8.75L182.84-8.75Q182.84-5.95 181.54-3.83 180.24-1.7 177.86-0.5 175.49 0.7 172.34 0.7L172.34 0.7Q170.34 0.7 167.64 0.2 164.94-0.3 162.49-1.1ZM208.09 0L192.69 0 192.69-35 207.94-35 207.94-32.55 199.19-33.7Q196.89-34 196.09-34L196.09-34 196.09-18.75Q196.74-18.75 199.19-18.9L199.19-18.9 207.39-19.4 207.39-17.1 199.19-17.6Q196.74-17.75 196.09-17.75L196.09-17.75 196.09-1Q196.99-1 199.24-1.3L199.24-1.3 208.09-2.45 208.09 0ZM221.23 0L217.83 0 219.08-35.7 219.68-35.7 244.83-5.3 245.13-5.3 244.03-35 247.43-35 246.18 0.7 245.58 0.7 220.43-29.7 220.13-29.7 221.23 0ZM271.08 0L267.68 0 267.68-34Q266.93-34 264.58-33.7L264.58-33.7 254.78-32.45 254.78-35 283.98-35 283.98-32.45 274.18-33.7Q271.83-34 271.08-34L271.08-34 271.08 0ZM295.48 0L292.08 0 292.08-35 295.48-35 295.48 0ZM337.83-35L341.43-35 341.43 0 338.03 0 338.03-32.1 337.73-32.1 325.63-8.9 324.08-8.9 310.33-29.35 310.03-29.35 311.13 0 307.73 0 308.98-35.7 309.98-35.7 325.73-12.3 326.03-12.3 337.83-35ZM369.82 0L354.42 0 354.42-35 369.67-35 369.67-32.55 360.92-33.7Q358.62-34 357.82-34L357.82-34 357.82-18.75Q358.47-18.75 360.92-18.9L360.92-18.9 369.12-19.4 369.12-17.1 360.92-17.6Q358.47-17.75 357.82-17.75L357.82-17.75 357.82-1Q358.72-1 360.97-1.3L360.97-1.3 369.82-2.45 369.82 0ZM382.97 0L379.57 0 380.82-35.7 381.42-35.7 406.57-5.3 406.87-5.3 405.77-35 409.17-35 407.92 0.7 407.32 0.7 382.17-29.7 381.87-29.7 382.97 0ZM432.82 0L429.42 0 429.42-34Q428.67-34 426.32-33.7L426.32-33.7 416.52-32.45 416.52-35 445.72-35 445.72-32.45 435.92-33.7Q433.57-34 432.82-34L432.82-34 432.82 0ZM449.26 0L445.62 0 459.06-35 462.17-35 475.62 0 471.96 0 465.76-16.4 454.42-16.4 449.26 0ZM459.71-32.4L459.42-32.4 454.76-17.6 465.31-17.6 459.71-32.4ZM483.71 0L483.71-35 487.11-35 487.11-1Q488.06-1 490.11-1.3L490.11-1.3 498.41-2.55 498.41 0 483.71 0ZM547.86-4.3L548.16-4.3 547.86-1.25Q546.46-0.65 544.46-0.2 542.46 0.25 540.41 0.48 538.36 0.7 536.76 0.7L536.76 0.7Q532.71 0.7 529.26-0.68 525.81-2.05 523.23-4.5 520.66-6.95 519.21-10.28 517.76-13.6 517.76-17.5L517.76-17.5Q517.76-21.4 519.21-24.73 520.66-28.05 523.23-30.5 525.81-32.95 529.26-34.33 532.71-35.7 536.76-35.7L536.76-35.7Q538.41-35.7 540.46-35.45 542.51-35.2 544.46-34.77 546.41-34.35 547.76-33.8L547.76-33.8 547.51-31 547.21-31Q545.36-32.7 542.56-33.6 539.76-34.5 536.76-34.5L536.76-34.5Q532.26-34.5 528.83-32.38 525.41-30.25 523.48-26.43 521.56-22.6 521.56-17.5L521.56-17.5Q521.56-12.35 523.48-8.55 525.41-4.75 528.81-2.63 532.21-0.5 536.76-0.5L536.76-0.5Q540.16-0.5 543.08-1.6 546.01-2.7 547.86-4.3L547.86-4.3ZM554.65-17.5L554.65-17.5Q554.65-21.35 556.03-24.68 557.4-28 559.88-30.48 562.35-32.95 565.68-34.33 569-35.7 572.85-35.7L572.85-35.7Q576.7-35.7 580.03-34.33 583.35-32.95 585.83-30.48 588.3-28 589.68-24.68 591.05-21.35 591.05-17.5L591.05-17.5Q591.05-13.65 589.68-10.33 588.3-7 585.83-4.53 583.35-2.05 580.03-0.68 576.7 0.7 572.85 0.7L572.85 0.7Q569 0.7 565.68-0.68 562.35-2.05 559.88-4.53 557.4-7 556.03-10.33 554.65-13.65 554.65-17.5ZM558.45-17.5L558.45-17.5Q558.45-12.4 560.25-8.58 562.05-4.75 565.3-2.63 568.55-0.5 572.85-0.5L572.85-0.5Q577.15-0.5 580.4-2.63 583.65-4.75 585.45-8.6 587.25-12.45 587.25-17.5L587.25-17.5Q587.25-22.55 585.45-26.38 583.65-30.2 580.4-32.35 577.15-34.5 572.85-34.5L572.85-34.5Q568.55-34.5 565.33-32.38 562.1-30.25 560.28-26.43 558.45-22.6 558.45-17.5ZM630.9-35L634.5-35 634.5 0 631.1 0 631.1-32.1 630.8-32.1 618.7-8.9 617.15-8.9 603.4-29.35 603.1-29.35 604.2 0 600.8 0 602.05-35.7 603.05-35.7 618.8-12.3 619.1-12.3 630.9-35ZM676.85-35L680.45-35 680.45 0 677.05 0 677.05-32.1 676.75-32.1 664.65-8.9 663.1-8.9 649.35-29.35 649.05-29.35 650.15 0 646.75 0 648-35.7 649-35.7 664.75-12.3 665.05-12.3 676.85-35ZM708.85 0L693.45 0 693.45-35 708.7-35 708.7-32.55 699.95-33.7Q697.65-34 696.85-34L696.85-34 696.85-18.75Q697.5-18.75 699.95-18.9L699.95-18.9 708.15-19.4 708.15-17.1 699.95-17.6Q697.5-17.75 696.85-17.75L696.85-17.75 696.85-1Q697.75-1 700-1.3L700-1.3 708.85-2.45 708.85 0ZM721.99 0L718.59 0 719.84-35.7 720.44-35.7 745.59-5.3 745.89-5.3 744.79-35 748.19-35 746.94 0.7 746.34 0.7 721.19-29.7 720.89-29.7 721.99 0ZM771.84 0L768.44 0 768.44-34Q767.69-34 765.34-33.7L765.34-33.7 755.54-32.45 755.54-35 784.74-35 784.74-32.45 774.94-33.7Q772.59-34 771.84-34L771.84-34 771.84 0ZM789.29-1.1L789.29-1.1 789.59-4.1 789.89-4.1Q791.84-2.4 794.29-1.45 796.74-0.5 799.14-0.5L799.14-0.5Q802.54-0.5 804.64-2.38 806.74-4.25 806.74-7.4L806.74-7.4Q806.74-9.15 805.96-10.65 805.19-12.15 803.41-13.7 801.64-15.25 798.54-17.05L798.54-17.05Q796.39-18.3 794.44-19.68 792.49-21.05 791.24-22.88 789.99-24.7 789.99-27.25L789.99-27.25Q789.99-31.05 792.74-33.38 795.49-35.7 799.99-35.7L799.99-35.7Q801.99-35.7 804.29-35.27 806.59-34.85 807.84-34.2L807.84-34.2 807.59-31.4 807.29-31.4Q804.44-34.5 799.99-34.5L799.99-34.5Q796.79-34.5 794.84-32.88 792.89-31.25 792.89-28.5L792.89-28.5Q792.89-26.45 793.96-24.98 795.04-23.5 796.74-22.33 798.44-21.15 800.39-20.05L800.39-20.05Q802.64-18.75 804.76-17.3 806.89-15.85 808.26-13.83 809.64-11.8 809.64-8.75L809.64-8.75Q809.64-5.95 808.34-3.83 807.04-1.7 804.66-0.5 802.29 0.7 799.14 0.7L799.14 0.7Q797.14 0.7 794.44 0.2 791.74-0.3 789.29-1.1ZM829.93-1.1L829.93-1.1 830.23-4.1 830.53-4.1Q832.48-2.4 834.93-1.45 837.38-0.5 839.78-0.5L839.78-0.5Q843.18-0.5 845.28-2.38 847.38-4.25 847.38-7.4L847.38-7.4Q847.38-9.15 846.61-10.65 845.83-12.15 844.06-13.7 842.28-15.25 839.18-17.05L839.18-17.05Q837.03-18.3 835.08-19.68 833.13-21.05 831.88-22.88 830.63-24.7 830.63-27.25L830.63-27.25Q830.63-31.05 833.38-33.38 836.13-35.7 840.63-35.7L840.63-35.7Q842.63-35.7 844.93-35.27 847.23-34.85 848.48-34.2L848.48-34.2 848.23-31.4 847.93-31.4Q845.08-34.5 840.63-34.5L840.63-34.5Q837.43-34.5 835.48-32.88 833.53-31.25 833.53-28.5L833.53-28.5Q833.53-26.45 834.61-24.98 835.68-23.5 837.38-22.33 839.08-21.15 841.03-20.05L841.03-20.05Q843.28-18.75 845.41-17.3 847.53-15.85 848.91-13.83 850.28-11.8 850.28-8.75L850.28-8.75Q850.28-5.95 848.98-3.83 847.68-1.7 845.31-0.5 842.93 0.7 839.78 0.7L839.78 0.7Q837.78 0.7 835.08 0.2 832.38-0.3 829.93-1.1ZM870.53 0L867.13 0 867.13-34Q866.38-34 864.03-33.7L864.03-33.7 854.23-32.45 854.23-35 883.43-35 883.43-32.45 873.63-33.7Q871.28-34 870.53-34L870.53-34 870.53 0ZM886.98 0L883.33 0 896.78-35 899.88-35 913.33 0 909.68 0 903.48-16.4 892.13-16.4 886.98 0ZM897.43-32.4L897.13-32.4 892.48-17.6 903.03-17.6 897.43-32.4ZM929.83 0L926.43 0 926.43-34Q925.68-34 923.33-33.7L923.33-33.7 913.53-32.45 913.53-35 942.73-35 942.73-32.45 932.93-33.7Q930.58-34 929.83-34L929.83-34 929.83 0ZM954.22 0L950.82 0 950.82-35 954.22-35 954.22 0ZM964.17-1.1L964.17-1.1 964.47-4.1 964.77-4.1Q966.72-2.4 969.17-1.45 971.62-0.5 974.02-0.5L974.02-0.5Q977.42-0.5 979.52-2.38 981.62-4.25 981.62-7.4L981.62-7.4Q981.62-9.15 980.85-10.65 980.07-12.15 978.3-13.7 976.52-15.25 973.42-17.05L973.42-17.05Q971.27-18.3 969.32-19.68 967.37-21.05 966.12-22.88 964.87-24.7 964.87-27.25L964.87-27.25Q964.87-31.05 967.62-33.38 970.37-35.7 974.87-35.7L974.87-35.7Q976.87-35.7 979.17-35.27 981.47-34.85 982.72-34.2L982.72-34.2 982.47-31.4 982.17-31.4Q979.32-34.5 974.87-34.5L974.87-34.5Q971.67-34.5 969.72-32.88 967.77-31.25 967.77-28.5L967.77-28.5Q967.77-26.45 968.85-24.98 969.92-23.5 971.62-22.33 973.32-21.15 975.27-20.05L975.27-20.05Q977.52-18.75 979.65-17.3 981.77-15.85 983.15-13.83 984.52-11.8 984.52-8.75L984.52-8.75Q984.52-5.95 983.22-3.83 981.92-1.7 979.55-0.5 977.17 0.7 974.02 0.7L974.02 0.7Q972.02 0.7 969.32 0.2 966.62-0.3 964.17-1.1ZM1004.77 0L1001.37 0 1001.37-34Q1000.62-34 998.27-33.7L998.27-33.7 988.47-32.45 988.47-35 1017.67-35 1017.67-32.45 1007.87-33.7Q1005.52-34 1004.77-34L1004.77-34 1004.77 0ZM1029.17 0L1025.77 0 1025.77-35 1029.17-35 1029.17 0ZM1069.76-4.3L1070.06-4.3 1069.76-1.25Q1068.36-0.65 1066.36-0.2 1064.36 0.25 1062.31 0.48 1060.26 0.7 1058.66 0.7L1058.66 0.7Q1054.61 0.7 1051.16-0.68 1047.71-2.05 1045.14-4.5 1042.56-6.95 1041.11-10.28 1039.66-13.6 1039.66-17.5L1039.66-17.5Q1039.66-21.4 1041.11-24.73 1042.56-28.05 1045.14-30.5 1047.71-32.95 1051.16-34.33 1054.61-35.7 1058.66-35.7L1058.66-35.7Q1060.31-35.7 1062.36-35.45 1064.41-35.2 1066.36-34.77 1068.31-34.35 1069.66-33.8L1069.66-33.8 1069.41-31 1069.11-31Q1067.26-32.7 1064.46-33.6 1061.66-34.5 1058.66-34.5L1058.66-34.5Q1054.16-34.5 1050.74-32.38 1047.31-30.25 1045.39-26.43 1043.46-22.6 1043.46-17.5L1043.46-17.5Q1043.46-12.35 1045.39-8.55 1047.31-4.75 1050.71-2.63 1054.11-0.5 1058.66-0.5L1058.66-0.5Q1062.06-0.5 1064.99-1.6 1067.91-2.7 1069.76-4.3L1069.76-4.3ZM1077.01-1.1L1077.01-1.1 1077.31-4.1 1077.61-4.1Q1079.56-2.4 1082.01-1.45 1084.46-0.5 1086.86-0.5L1086.86-0.5Q1090.26-0.5 1092.36-2.38 1094.46-4.25 1094.46-7.4L1094.46-7.4Q1094.46-9.15 1093.69-10.65 1092.91-12.15 1091.14-13.7 1089.36-15.25 1086.26-17.05L1086.26-17.05Q1084.11-18.3 1082.16-19.68 1080.21-21.05 1078.96-22.88 1077.71-24.7 1077.71-27.25L1077.71-27.25Q1077.71-31.05 1080.46-33.38 1083.21-35.7 1087.71-35.7L1087.71-35.7Q1089.71-35.7 1092.01-35.27 1094.31-34.85 1095.56-34.2L1095.56-34.2 1095.31-31.4 1095.01-31.4Q1092.16-34.5 1087.71-34.5L1087.71-34.5Q1084.51-34.5 1082.56-32.88 1080.61-31.25 1080.61-28.5L1080.61-28.5Q1080.61-26.45 1081.69-24.98 1082.76-23.5 1084.46-22.33 1086.16-21.15 1088.11-20.05L1088.11-20.05Q1090.36-18.75 1092.49-17.3 1094.61-15.85 1095.99-13.83 1097.36-11.8 1097.36-8.75L1097.36-8.75Q1097.36-5.95 1096.06-3.83 1094.76-1.7 1092.39-0.5 1090.01 0.7 1086.86 0.7L1086.86 0.7Q1084.86 0.7 1082.16 0.2 1079.46-0.3 1077.01-1.1Z" opacity="1" transform="matrix(1,0,0,1,0,0)" fill="#0023ff" class="slogan-text-1" data-fill-palette-color="secondary" id="text-1"></path></svg></g></svg></g></svg></g></svg></g><g transform="matrix(1,0,0,1,0,20.73053530313092)"><svg viewBox="0 0 244.43135999999998 192.05321142857142" height="192.05321142857142" width="244.43135999999998"><g><svg xmlns="http://www.w3.org/2000/svg" xmlns:xlink="http://www.w3.org/1999/xlink" version="1.1" x="0" y="0" viewBox="1 3 14 11" style="enable-background:new 0 0 16 16;" xml:space="preserve" height="192.05321142857142" width="244.43135999999998" class="icon-icon-0" data-fill-palette-color="accent" id="icon-0"><path d="M13.5 3C12.7 3 12 3.7 12 4.5c0 0.4 0.1 0.7 0.3 0.9L10.8 8c-0.1 0-0.2 0-0.3 0-0.4 0-0.7 0.1-0.9 0.3L7 6.8c0-0.1 0-0.2 0-0.3C7 5.7 6.3 5 5.5 5S4 5.7 4 6.5c0 0.4 0.2 0.8 0.4 1L2.7 11c-0.1 0-0.1 0-0.2 0C1.7 11 1 11.7 1 12.5S1.7 14 2.5 14 4 13.3 4 12.5c0-0.4-0.2-0.8-0.4-1L5.3 8c0.1 0 0.1 0 0.2 0 0.4 0 0.7-0.1 0.9-0.3L9 9.2c0 0.1 0 0.2 0 0.3 0 0.8 0.7 1.5 1.5 1.5S12 10.3 12 9.5c0-0.4-0.1-0.7-0.3-0.9L13.2 6c0.1 0 0.2 0 0.3 0C14.3 6 15 5.3 15 4.5S14.3 3 13.5 3z" fill="#0023ff" data-fill-palette-color="accent"></path></svg></g></svg></g></svg></g><defs></defs></svg><rect width="395.52" height="127.78000564742823" fill="none" stroke="none" visibility="hidden"></rect></g></svg></g></svg>